# xmcd CD database file
#
# Track frame offsets:
#	150
#	36100
#	64145
#	98118
#	127960
#	136375
#	166206
#	192250
#
# Disc length: 3167 seconds
#
# Revision: 0
# Processed by: cddbd v1.5.2PL0 Copyright (c) Steve Scherf et al.
# Submitted via: CDex 1.51
#
DISCID=680c5d08
DTITLE=Leila Martial - Dance Floor
DYEAR=2010
DGENRE=Jazz
TTITLE0=Avant De Sourire
TTITLE1=Dance Floor
TTITLE2=Left Alone
TTITLE3=Toc
TTITLE4=Matins D'Automne
TTITLE5=Quitte La Cape
TTITLE6=Petite Fêlure
TTITLE7=Voyageur...
EXTD=YEAR: 2010
EXTT0=
EXTT1=
EXTT2=
EXTT3=
EXTT4=
EXTT5=
EXTT6=
EXTT7=
PLAYORDER=
